<mxfile host="Electron" modified="2023-12-01T02:17:23.632Z" agent="Mozilla/5.0 (Windows NT 10.0; Win64; x64) AppleWebKit/537.36 (KHTML, like Gecko) draw.io/21.6.8 Chrome/114.0.5735.289 Electron/25.5.0 Safari/537.36" etag="0rBHYk2TQSQNRvWXyuP7" version="21.6.8" type="device">
  <diagram id="R2lEEEUBdFMjLlhIrx00" name="Page-1">
    <mxGraphModel dx="1290" dy="669" grid="1" gridSize="10" guides="1" tooltips="1" connect="1" arrows="1" fold="1" page="1" pageScale="1" pageWidth="850" pageHeight="1100" math="0" shadow="0" extFonts="Permanent Marker^https://fonts.googleapis.com/css?family=Permanent+Marker">
      <root>
        <mxCell id="0" />
        <mxCell id="1" parent="0" />
        <mxCell id="frV07KkKiNC6O0siVJgZ-3" value="Caso de Uso" style="swimlane;whiteSpace=wrap;html=1;" parent="1" vertex="1">
          <mxGeometry x="230" y="80" width="410" height="640" as="geometry" />
        </mxCell>
        <mxCell id="frV07KkKiNC6O0siVJgZ-6" value="Gestionar Productos" style="ellipse;whiteSpace=wrap;html=1;" parent="frV07KkKiNC6O0siVJgZ-3" vertex="1">
          <mxGeometry x="84" y="60" width="258" height="50" as="geometry" />
        </mxCell>
        <mxCell id="frV07KkKiNC6O0siVJgZ-7" value="Gestionar Areas" style="ellipse;whiteSpace=wrap;html=1;" parent="frV07KkKiNC6O0siVJgZ-3" vertex="1">
          <mxGeometry x="87" y="131" width="253" height="50" as="geometry" />
        </mxCell>
        <mxCell id="frV07KkKiNC6O0siVJgZ-8" value="Gestionar Mesas" style="ellipse;whiteSpace=wrap;html=1;" parent="frV07KkKiNC6O0siVJgZ-3" vertex="1">
          <mxGeometry x="84" y="200" width="253" height="50" as="geometry" />
        </mxCell>
        <mxCell id="frV07KkKiNC6O0siVJgZ-9" value="Gestionar Meseros" style="ellipse;whiteSpace=wrap;html=1;" parent="frV07KkKiNC6O0siVJgZ-3" vertex="1">
          <mxGeometry x="84" y="270" width="253" height="50" as="geometry" />
        </mxCell>
        <mxCell id="frV07KkKiNC6O0siVJgZ-10" value="Registrar/Actualizar Cuentas" style="ellipse;whiteSpace=wrap;html=1;" parent="frV07KkKiNC6O0siVJgZ-3" vertex="1">
          <mxGeometry x="84" y="340" width="253" height="50" as="geometry" />
        </mxCell>
        <mxCell id="frV07KkKiNC6O0siVJgZ-11" value="Eliminar Cuentas" style="ellipse;whiteSpace=wrap;html=1;" parent="frV07KkKiNC6O0siVJgZ-3" vertex="1">
          <mxGeometry x="84" y="420" width="253" height="50" as="geometry" />
        </mxCell>
        <mxCell id="pZQ5IASNNz2QkfMyQ7go-1" value="Generar Precuenta" style="ellipse;whiteSpace=wrap;html=1;" vertex="1" parent="frV07KkKiNC6O0siVJgZ-3">
          <mxGeometry x="84" y="490" width="253" height="50" as="geometry" />
        </mxCell>
        <mxCell id="pZQ5IASNNz2QkfMyQ7go-5" value="Visualizar Menu Productos" style="ellipse;whiteSpace=wrap;html=1;" vertex="1" parent="frV07KkKiNC6O0siVJgZ-3">
          <mxGeometry x="84" y="560" width="253" height="50" as="geometry" />
        </mxCell>
        <mxCell id="frV07KkKiNC6O0siVJgZ-4" value="Administrador" style="shape=umlActor;verticalLabelPosition=bottom;verticalAlign=top;html=1;outlineConnect=0;" parent="1" vertex="1">
          <mxGeometry x="80" y="290" width="30" height="60" as="geometry" />
        </mxCell>
        <mxCell id="frV07KkKiNC6O0siVJgZ-5" value="Cajero" style="shape=umlActor;verticalLabelPosition=bottom;verticalAlign=top;html=1;outlineConnect=0;" parent="1" vertex="1">
          <mxGeometry x="730" y="220" width="30" height="60" as="geometry" />
        </mxCell>
        <mxCell id="frV07KkKiNC6O0siVJgZ-12" value="" style="endArrow=none;html=1;rounded=0;entryX=0;entryY=0.5;entryDx=0;entryDy=0;exitX=1;exitY=0.3333333333333333;exitDx=0;exitDy=0;exitPerimeter=0;" parent="1" source="frV07KkKiNC6O0siVJgZ-4" target="frV07KkKiNC6O0siVJgZ-6" edge="1">
          <mxGeometry width="50" height="50" relative="1" as="geometry">
            <mxPoint x="120" y="470" as="sourcePoint" />
            <mxPoint x="170" y="420" as="targetPoint" />
          </mxGeometry>
        </mxCell>
        <mxCell id="frV07KkKiNC6O0siVJgZ-13" value="" style="endArrow=none;html=1;rounded=0;entryX=0;entryY=0.5;entryDx=0;entryDy=0;exitX=1;exitY=0.3333333333333333;exitDx=0;exitDy=0;exitPerimeter=0;" parent="1" source="frV07KkKiNC6O0siVJgZ-4" target="frV07KkKiNC6O0siVJgZ-7" edge="1">
          <mxGeometry width="50" height="50" relative="1" as="geometry">
            <mxPoint x="250" y="300" as="sourcePoint" />
            <mxPoint x="300" y="250" as="targetPoint" />
          </mxGeometry>
        </mxCell>
        <mxCell id="frV07KkKiNC6O0siVJgZ-14" value="" style="endArrow=none;html=1;rounded=0;entryX=0;entryY=0.5;entryDx=0;entryDy=0;exitX=1;exitY=0.3333333333333333;exitDx=0;exitDy=0;exitPerimeter=0;" parent="1" source="frV07KkKiNC6O0siVJgZ-4" target="frV07KkKiNC6O0siVJgZ-8" edge="1">
          <mxGeometry width="50" height="50" relative="1" as="geometry">
            <mxPoint x="110" y="480" as="sourcePoint" />
            <mxPoint x="160" y="430" as="targetPoint" />
          </mxGeometry>
        </mxCell>
        <mxCell id="frV07KkKiNC6O0siVJgZ-15" value="" style="endArrow=none;html=1;rounded=0;entryX=0;entryY=0.5;entryDx=0;entryDy=0;exitX=1;exitY=0.3333333333333333;exitDx=0;exitDy=0;exitPerimeter=0;" parent="1" source="frV07KkKiNC6O0siVJgZ-4" target="frV07KkKiNC6O0siVJgZ-9" edge="1">
          <mxGeometry width="50" height="50" relative="1" as="geometry">
            <mxPoint x="110" y="460" as="sourcePoint" />
            <mxPoint x="160" y="410" as="targetPoint" />
          </mxGeometry>
        </mxCell>
        <mxCell id="frV07KkKiNC6O0siVJgZ-16" value="" style="endArrow=none;html=1;rounded=0;entryX=0;entryY=0.5;entryDx=0;entryDy=0;exitX=1;exitY=0.3333333333333333;exitDx=0;exitDy=0;exitPerimeter=0;" parent="1" source="frV07KkKiNC6O0siVJgZ-4" target="frV07KkKiNC6O0siVJgZ-10" edge="1">
          <mxGeometry width="50" height="50" relative="1" as="geometry">
            <mxPoint x="90" y="520" as="sourcePoint" />
            <mxPoint x="140" y="470" as="targetPoint" />
          </mxGeometry>
        </mxCell>
        <mxCell id="frV07KkKiNC6O0siVJgZ-17" value="" style="endArrow=none;html=1;rounded=0;entryX=0;entryY=0.5;entryDx=0;entryDy=0;exitX=1;exitY=0.3333333333333333;exitDx=0;exitDy=0;exitPerimeter=0;" parent="1" source="frV07KkKiNC6O0siVJgZ-4" target="frV07KkKiNC6O0siVJgZ-11" edge="1">
          <mxGeometry width="50" height="50" relative="1" as="geometry">
            <mxPoint x="20" y="500" as="sourcePoint" />
            <mxPoint x="70" y="450" as="targetPoint" />
          </mxGeometry>
        </mxCell>
        <mxCell id="frV07KkKiNC6O0siVJgZ-20" value="" style="endArrow=none;html=1;rounded=0;entryX=1;entryY=0.5;entryDx=0;entryDy=0;exitX=0;exitY=0.3333333333333333;exitDx=0;exitDy=0;exitPerimeter=0;" parent="1" source="frV07KkKiNC6O0siVJgZ-5" target="frV07KkKiNC6O0siVJgZ-10" edge="1">
          <mxGeometry width="50" height="50" relative="1" as="geometry">
            <mxPoint x="690" y="460" as="sourcePoint" />
            <mxPoint x="740" y="410" as="targetPoint" />
          </mxGeometry>
        </mxCell>
        <mxCell id="frV07KkKiNC6O0siVJgZ-21" value="" style="endArrow=none;html=1;rounded=0;entryX=0;entryY=0.3333333333333333;entryDx=0;entryDy=0;entryPerimeter=0;exitX=1;exitY=0.5;exitDx=0;exitDy=0;" parent="1" source="frV07KkKiNC6O0siVJgZ-11" target="frV07KkKiNC6O0siVJgZ-5" edge="1">
          <mxGeometry width="50" height="50" relative="1" as="geometry">
            <mxPoint x="720" y="540" as="sourcePoint" />
            <mxPoint x="770" y="490" as="targetPoint" />
          </mxGeometry>
        </mxCell>
        <mxCell id="pZQ5IASNNz2QkfMyQ7go-3" value="" style="endArrow=none;html=1;rounded=0;entryX=0;entryY=0.3333333333333333;entryDx=0;entryDy=0;entryPerimeter=0;exitX=1;exitY=0.5;exitDx=0;exitDy=0;" edge="1" parent="1" source="pZQ5IASNNz2QkfMyQ7go-1" target="frV07KkKiNC6O0siVJgZ-5">
          <mxGeometry width="50" height="50" relative="1" as="geometry">
            <mxPoint x="572" y="525" as="sourcePoint" />
            <mxPoint x="740" y="320" as="targetPoint" />
          </mxGeometry>
        </mxCell>
        <mxCell id="pZQ5IASNNz2QkfMyQ7go-4" value="" style="endArrow=none;html=1;rounded=0;entryX=0;entryY=0.5;entryDx=0;entryDy=0;exitX=1;exitY=0.3333333333333333;exitDx=0;exitDy=0;exitPerimeter=0;" edge="1" parent="1" source="frV07KkKiNC6O0siVJgZ-4" target="pZQ5IASNNz2QkfMyQ7go-1">
          <mxGeometry width="50" height="50" relative="1" as="geometry">
            <mxPoint x="120" y="320" as="sourcePoint" />
            <mxPoint x="319" y="525" as="targetPoint" />
          </mxGeometry>
        </mxCell>
        <mxCell id="pZQ5IASNNz2QkfMyQ7go-6" value="" style="endArrow=none;html=1;rounded=0;entryX=0;entryY=0.3333333333333333;entryDx=0;entryDy=0;entryPerimeter=0;exitX=1;exitY=0.5;exitDx=0;exitDy=0;" edge="1" parent="1" source="pZQ5IASNNz2QkfMyQ7go-5" target="frV07KkKiNC6O0siVJgZ-5">
          <mxGeometry width="50" height="50" relative="1" as="geometry">
            <mxPoint x="577" y="605" as="sourcePoint" />
            <mxPoint x="740" y="320" as="targetPoint" />
          </mxGeometry>
        </mxCell>
        <mxCell id="pZQ5IASNNz2QkfMyQ7go-7" value="" style="endArrow=none;html=1;rounded=0;entryX=0;entryY=0.5;entryDx=0;entryDy=0;exitX=1;exitY=0.3333333333333333;exitDx=0;exitDy=0;exitPerimeter=0;" edge="1" parent="1" source="frV07KkKiNC6O0siVJgZ-4" target="pZQ5IASNNz2QkfMyQ7go-5">
          <mxGeometry width="50" height="50" relative="1" as="geometry">
            <mxPoint x="120" y="320" as="sourcePoint" />
            <mxPoint x="324" y="605" as="targetPoint" />
          </mxGeometry>
        </mxCell>
        <mxCell id="pZQ5IASNNz2QkfMyQ7go-8" value="Cliente" style="shape=umlActor;verticalLabelPosition=bottom;verticalAlign=top;html=1;outlineConnect=0;" vertex="1" parent="1">
          <mxGeometry x="730" y="480" width="30" height="60" as="geometry" />
        </mxCell>
        <mxCell id="pZQ5IASNNz2QkfMyQ7go-10" value="" style="endArrow=none;html=1;rounded=0;entryX=0;entryY=0.3333333333333333;entryDx=0;entryDy=0;entryPerimeter=0;exitX=1;exitY=0.5;exitDx=0;exitDy=0;" edge="1" parent="1" source="pZQ5IASNNz2QkfMyQ7go-5" target="pZQ5IASNNz2QkfMyQ7go-8">
          <mxGeometry width="50" height="50" relative="1" as="geometry">
            <mxPoint x="577" y="675" as="sourcePoint" />
            <mxPoint x="740" y="250" as="targetPoint" />
          </mxGeometry>
        </mxCell>
      </root>
    </mxGraphModel>
  </diagram>
</mxfile>
